<svg width="184" height="218" viewBox="0 0 184 218" fill="none" xmlns="http://www.w3.org/2000/svg">
<g clip-path="url(#clip0)">
<path d="M55.4694 26.4691C55.4694 16.638 59.1193 0.976529 51.3075 0.805883C43.5906 0.635238 43.382 3.74478 43.2587 15.4719C43.2587 15.7564 43.1924 16.0408 43.0597 16.2872C42.7563 16.875 42.159 18.2023 41.5049 18.2212L14.6282 18.1075C13.4526 18.1454 12.6278 20.2121 12.9407 21.3403C14.486 26.9431 18.5341 40.2914 19.6907 40.4905C20.724 40.6706 25.1324 41.2205 27.493 41.5144C28.3746 41.6187 29.0383 42.3392 29.0762 43.2303C29.5218 53.8957 32.0814 117.499 29.8062 141.01C29.7303 141.759 29.2089 142.385 28.4884 142.584L20.724 144.727C20.1836 144.878 19.7381 145.277 19.5295 145.798L12.4382 163.46C11.9737 164.626 12.7985 165.896 14.0499 165.944L41.6945 166.949C42.7373 166.986 43.5242 167.887 43.4294 168.92C42.9459 174.419 42.9649 189.739 58.816 186.412C59.9346 186.175 60.5414 184.971 60.0958 183.918C59.2331 181.908 58.4652 177.69 59.3848 168.892C59.7355 165.517 62.6081 162.957 66.0115 162.967C68.4669 162.976 71.5006 162.91 74.7145 162.663C76.8001 162.502 78.5635 164.19 78.4781 166.285C78.3075 170.542 78.1084 177.149 78.3644 180.667C78.7436 185.89 81.5213 187.673 94.1302 185.786C97.7896 185.236 94.1302 185.786 94.1302 185.786C94.1302 185.786 90.3286 185.397 90.0441 176.05C89.9399 172.627 89.883 170.03 89.8545 168.067C89.8071 164.569 91.7411 161.099 95.0498 159.962C106.929 155.885 110.398 147.41 111.413 142.802C111.726 141.39 110.342 140.205 108.995 140.716C102.359 143.248 102.88 143.267 90.2622 144.632C72.8468 146.518 48.6625 144.054 47.8093 139.986C45.5435 129.16 45.1169 110.692 47.942 101.307C48.9469 97.9792 50.0941 92.2246 65.2721 91.2482C74.2973 90.6699 80.7534 87.6077 82.2324 80.9051C82.2324 80.9051 79.502 81.3128 63.4234 80.3837C56.0287 79.9571 49.658 82.64 47.0888 76.1176C44.112 68.5617 44.5386 45.9891 46.8233 40.5948C50.2647 32.4512 55.4694 32.4512 55.4694 26.4691Z" fill="#A4A7D4"/>
<path d="M66.7036 182.951C67.3957 177.576 68.0783 172.191 68.7703 166.816C67.9835 167.129 67.1966 167.432 66.4097 167.745C70.3251 168.295 74.2879 168.2 78.2032 167.735L76.9803 167.233C76.4304 171.859 75.0937 179.624 77.7482 183.738C80.7535 188.393 91.3999 186.961 95.8651 185.919C97.6095 185.511 97.2682 184.25 95.5238 184.667C91.8265 185.53 87.4276 185.587 83.7303 184.61C80.6586 183.805 80.0235 182.136 79.6253 179.178C79.0754 175.121 79.3883 170.873 79.8718 166.825C79.9476 166.219 79.0185 166.285 78.6488 166.323C75.1885 166.74 71.6903 166.797 68.2299 166.313C67.6706 166.237 65.9736 166.465 65.8693 167.242L63.8026 183.378C63.6794 184.373 66.5898 183.833 66.7036 182.951Z" fill="black"/>
<path d="M27.3412 47.9325C29.588 79.6821 28.422 111.896 27.9953 143.703C28.5547 143.333 29.114 142.973 29.6734 142.603C26.7439 143.124 23.3974 143.286 20.5817 144.234C18.6288 144.888 18.5909 145.627 17.7756 147.523C15.1116 153.704 12.4571 159.886 9.79313 166.067C9.59404 166.522 10.4283 166.588 10.6558 166.598C21.3876 166.986 32.1098 167.375 42.8415 167.773C42.5571 167.593 42.2727 167.422 41.9788 167.242C41.6565 172.371 41.3342 179.425 44.1214 183.956C47.0982 188.81 56.5975 187.293 61.2523 186.421C62.5416 186.184 63.7267 184.629 61.7074 184.999C58.2186 185.653 54.161 186.08 50.6628 185.274C47.3921 184.525 46.444 182.534 45.7046 179.406C44.7471 175.357 44.6333 170.959 44.8893 166.816C44.9177 166.342 44.3963 166.304 44.0266 166.285C33.2948 165.896 22.5726 165.507 11.8409 165.109C12.1253 165.289 12.4097 165.46 12.7036 165.64C15.6994 158.672 18.6951 151.714 21.6909 144.755C21.1316 145.058 20.5723 145.362 20.0129 145.675C23.0845 145.125 26.1467 144.575 29.2183 144.025C29.7587 143.93 30.8868 143.655 30.8963 142.925C31.3229 111.119 32.489 78.9047 30.2422 47.1551C30.1948 46.3587 27.2654 46.9275 27.3412 47.9325Z" fill="black"/>
<path d="M26.6681 42.3959C27.0852 44.2066 27.199 46.0932 27.3412 47.9324C27.3981 48.7287 30.3275 48.1504 30.2517 47.155C30.1095 45.3063 30.0052 43.4198 29.5786 41.6185C29.3889 40.7463 26.4595 41.4763 26.6681 42.3959Z" fill="black"/>
<path d="M124.78 86.6027C141.693 72.6572 137.266 43.1449 122.315 29.8251C115.186 23.4732 105.639 18.7236 96.2252 16.9508C94.3197 16.5905 94.7842 17.1593 94.5757 15.5287C94.2154 12.6752 94.3197 9.80262 93.8172 6.95852C92.9545 2.11408 91.6273 1.02384 86.8302 0.824753C83.7681 0.701508 76.2976 0.15165 73.8896 2.73978C72.4012 4.34195 72.8562 8.45641 72.7614 10.5042C72.6572 12.7226 72.6003 14.9504 72.5908 17.1688C73.2734 16.7896 73.956 16.4199 74.6385 16.0407C70.8938 15.9933 67.1586 15.9933 63.4233 16.0407C63.7077 16.2208 63.9921 16.3914 64.286 16.5716C64.4567 12.5329 64.6747 7.82123 63.3001 3.97222C61.7453 -0.322367 56.5027 -0.12328 52.6252 0.0947677C50.1224 0.236973 44.5954 0.322295 43.0217 2.83458C41.8745 4.66428 42.1874 8.50381 42.0073 10.6274C41.8177 12.9027 41.6565 15.178 41.5238 17.4532C42.2064 17.1404 42.8795 16.8181 43.562 16.5052C33.2854 16.8181 22.9992 17.1309 12.7226 17.4438C12.3054 17.4532 10.4283 17.804 10.6748 18.5719C13.1207 26.014 15.5761 33.4465 18.0221 40.8886C18.0979 41.1066 18.3728 41.1825 18.5719 41.2204C21.4539 41.7229 24.3359 42.2253 27.218 42.7373C28.0333 42.8795 30.6214 41.5712 29.0382 41.2963C26.981 40.936 22.0512 41.0782 20.5154 39.8078C21.3686 40.5094 20.5249 39.002 20.4395 38.6228C20.1551 37.2292 19.5105 35.8071 19.0649 34.4609C17.2352 28.9055 15.4055 23.3595 13.5758 17.804C12.8932 18.1832 12.2106 18.553 11.528 18.9322C21.8047 18.6193 32.0909 18.3065 42.3675 17.9936C42.7941 17.9841 44.3679 17.7187 44.4058 17.0456C44.5859 13.8318 44.8134 10.6084 45.1453 7.4041C45.2969 5.94413 45.1263 3.39392 46.1976 2.45537C47.4585 1.33669 51.3738 1.53578 52.9476 1.5263C58.0669 1.48838 60.3043 2.80614 61.0153 7.87811C61.4325 10.8739 61.4893 13.974 61.3566 16.9982C61.3377 17.4627 61.8401 17.5291 62.2193 17.5291C65.964 17.4817 69.6993 17.4817 73.4345 17.5291C74.0602 17.5386 75.4728 17.2162 75.4823 16.4009C75.5013 12.8079 75.5771 9.19588 75.9563 5.6218C76.2028 3.34652 76.2123 2.97679 78.4781 2.64497C80.5258 2.3416 82.6494 2.2468 84.7161 2.2942C85.9391 2.32264 88.3471 2.16148 89.3615 3.07159C90.6319 4.20923 90.812 7.22397 91.0395 8.78822C91.4756 11.7271 91.6368 14.7229 91.6652 17.6902C91.6652 17.8988 92.0918 18.0031 92.2151 18.0221C106.853 20.0603 122.552 29.5501 128.857 43.1828C134.81 56.0571 134.336 76.4872 122.467 86.2804C121.253 87.2853 124.135 87.1336 124.78 86.6027Z" fill="black"/>
<path d="M101.269 182.06C101.847 176.837 102.435 171.622 103.023 166.399C102.34 166.712 101.667 167.034 100.984 167.347C112.456 166.854 122.628 165.697 132.194 158.559C148.026 146.737 151.695 123.443 144.015 105.838C140.745 98.3395 135.237 91.9592 128.297 87.6362C127.491 87.1338 124.922 88.3188 125.576 88.7264C144.034 100.207 150.017 126.079 140.593 145.362C136.422 153.904 128.847 160.331 119.945 163.545C114.124 165.65 108.265 165.602 102.16 165.858C101.705 165.877 100.197 166.124 100.122 166.806C99.5338 172.03 98.9555 177.244 98.3678 182.468C98.254 183.482 101.164 182.932 101.269 182.06Z" fill="black"/>
<path d="M42.9458 178.865C47.2404 182.212 54.9384 181.937 59.8777 181.207C61.3945 180.979 62.1909 179.007 60.2 179.301C55.8296 179.955 49.0417 180.287 45.2211 177.31C44.3205 176.609 41.7039 177.898 42.9458 178.865Z" fill="black"/>
<path d="M76.7907 178.628C81.1516 182.032 88.8496 181.709 93.8837 180.96C95.2015 180.761 96.3675 179.244 94.3388 179.538C90.0536 180.173 83.2657 180.458 79.521 177.538C78.7721 176.969 76.1176 178.107 76.7907 178.628Z" fill="black"/>
<path d="M69.7941 36.9922C65.0729 37.2008 59.8967 37.3999 55.3746 38.9357C51.8858 40.1207 50.9852 42.6425 50.5491 46.1312C49.8855 51.4592 49.6864 56.9009 49.6484 62.2573C49.6295 66.4665 48.653 74.7713 51.3928 78.3075C53.5923 81.1516 59.4985 81.0473 62.6649 81.3032C67.8601 81.7299 73.0933 81.7299 78.298 81.5403C87.3138 81.2179 97.2776 81.4549 104.265 74.9135C105.44 73.8043 102.587 74.0034 101.97 74.5817C95.6375 80.5069 85.5694 79.9286 77.3689 80.1277C73.0743 80.232 68.7608 80.213 64.4851 79.8717C61.1007 79.5968 55.1376 79.6632 53.6017 76.108C52.3029 73.1122 52.6821 68.4953 52.5968 65.291C52.4831 60.5603 52.6253 55.8296 52.9666 51.1179C53.1656 48.3402 52.7959 43.1355 54.8342 40.8981C57.1663 38.3384 65.5943 38.6039 68.6186 38.4711C69.5856 38.4332 71.7376 36.9069 69.7941 36.9922Z" fill="black"/>
<path d="M50.7101 107.459C49.7242 116.191 49.2881 125.083 49.9422 133.853C50.1698 136.877 49.9517 141.039 52.4261 143.21C54.7487 145.248 58.8632 145.381 61.7547 145.713C69.9267 146.651 78.2505 146.547 86.4509 146.187C92.689 145.912 99.657 146.035 105.639 144.006C115.982 140.498 121.471 130.241 120.334 119.575C118.76 104.909 104.113 99.4391 91.2669 97.8938C82.308 96.813 73.0458 97.1923 64.0963 98.1687C57.0809 98.9366 51.7624 99.5149 50.7101 107.459C50.511 108.948 53.4879 108.569 53.6585 107.241C54.2368 102.909 56.3225 101.326 60.5223 100.719C63.4991 100.292 66.5043 100.017 69.5096 99.8088C76.3923 99.3348 83.3983 99.1926 90.262 100.017C102.046 101.439 115.385 106.189 117.309 119.471C118.703 129.112 113.982 139.285 104.302 142.252C99.4105 143.75 93.7697 143.674 88.6978 143.94C81.9667 144.29 75.2073 144.423 68.4763 144.044C65.0918 143.854 61.5272 143.703 58.228 142.906C55.0521 142.148 53.9619 140.916 53.3551 137.749C52.9475 135.625 52.8622 133.341 52.7484 131.198C52.3407 123.216 52.7674 115.167 53.668 107.232C53.8292 105.744 50.8618 106.132 50.7101 107.459Z" fill="black"/>
<path d="M115.176 92.689C118.646 91.0205 122.125 88.9917 124.96 86.3561C125.463 85.8916 124.514 85.7968 124.249 85.8063C123.604 85.8063 122.78 86.0812 122.306 86.5268C119.746 88.9063 116.589 90.7266 113.47 92.2245C113.005 92.452 112.702 92.7174 113.138 93.0587C113.546 93.3716 114.788 92.8691 115.176 92.689Z" fill="black"/>
<path d="M94.149 56.7017C98.2445 53.2604 102.359 54.1894 106.132 58.5788C109.147 62.0771 111.991 63.2621 113.944 59.5363C114.826 57.8488 116.76 58.2186 117.746 59.8587C118.978 61.9254 118.722 64.9686 117.215 66.8267C111.621 73.6999 96.1493 70.7421 94.4049 64.8358C92.6511 58.9201 92.5942 58.01 94.149 56.7017Z" fill="black"/>
<path d="M94.149 56.7018C94.149 56.7018 87.0672 48.8806 75.3874 61.2714C72.2968 64.5516 67.1206 63.2622 64.1627 61.6601C62.5131 60.7689 60.0957 61.3851 60.1146 63.2528C60.1336 64.5421 60.7498 65.765 61.5082 66.8079C68.0212 75.7478 91.0205 73.8992 94.4049 64.817C96.5475 59.053 94.149 56.7018 94.149 56.7018Z" fill="black"/>
<path d="M96.301 39.8173C97.268 33.93 99.4295 31.4841 102.416 32.8019C108.076 35.3047 107.782 46.8043 105.497 48.7668" fill="white"/>
<path d="M97.7516 39.6371C98.0929 37.7885 98.7945 32.5743 101.515 33.6455C103.345 34.3661 104.388 36.6887 104.909 38.4236C105.677 41.0023 106.464 46.3207 104.321 48.5107C103.127 49.7337 105.971 49.7242 106.663 49.0132C110.067 45.5339 108.749 37.1627 105.857 33.8257C104.265 31.9865 101.809 31.0764 99.4676 31.9675C96.2537 33.2 95.391 36.9542 94.8317 39.9879C94.6326 41.135 97.5715 40.6515 97.7516 39.6371Z" fill="black"/>
<path d="M75.3875 37.9971C75.3875 37.9971 77.1129 27.7394 83.3035 30.6498C90.6697 34.1101 92.4615 45.1832 88.129 49.9044" fill="white"/>
<path d="M76.8286 37.7791C77.0277 36.632 77.369 35.4849 77.8146 34.4136C78.1843 33.5225 78.6299 32.2805 79.4073 31.6643C81.3034 30.157 83.5407 31.9298 84.9343 33.276C89.1246 37.3241 90.6794 45.2307 86.783 49.9519C86.0814 50.8051 88.935 50.5112 89.4564 49.876C94.4715 43.8086 91.3904 31.6548 83.3701 29.645C77.9189 28.2798 74.7524 33.6362 73.9371 38.2247C73.776 39.1253 76.677 38.6229 76.8286 37.7791Z" fill="black"/>
<path d="M51.573 185.786C51.573 185.786 53.251 186.639 59.3374 186.051L58.304 213.487C58.304 213.487 55.0238 213.668 54.0189 212.795L51.573 185.786Z" fill="black"/>
<path d="M58.3134 213.497C58.3134 213.497 65.49 214.957 66.2769 217.469C66.7888 219.09 55.8011 216.218 55.8011 216.218V218H54.0946L54.0188 212.805C54.0283 212.805 57.0525 213.193 58.3134 213.497Z" fill="black"/>
<path d="M85.0574 185.786C85.0574 185.786 86.7354 186.639 92.8312 186.051L89.788 213.487C89.788 213.487 86.5079 213.668 85.5029 212.795L85.0574 185.786Z" fill="black"/>
<path d="M89.7882 213.497C89.7882 213.497 96.9648 214.957 97.7517 217.469C98.2637 219.09 87.276 216.218 87.276 216.218V218H85.5695L85.4937 212.805C85.5031 212.805 88.5179 213.193 89.7882 213.497Z" fill="black"/>
<path d="M176.078 69.5951C177.604 69.3202 178.865 70.1355 178.287 71.6807C177.898 72.7141 177.035 73.6147 176.23 74.3352C175.822 74.705 174.371 76.1175 173.727 75.9564C172.912 75.7573 173.983 74.0034 174.201 73.7569C175.054 72.7805 172.94 72.7805 172.437 73.3588C171.518 74.4111 170.39 76.5821 172.419 77.1699C174.011 77.6344 175.907 76.383 177.092 75.4824C178.505 74.4111 180.23 72.8184 180.61 70.9982C181.103 68.5807 178.164 68.0213 176.372 68.3437C176.012 68.41 175.158 68.6186 175.139 69.1021C175.101 69.5666 175.708 69.6614 176.078 69.5951Z" fill="#010101"/>
<path d="M180.42 74.2878C181.33 75.8426 178.979 78.1843 177.813 78.9427C177.329 79.2555 176.666 79.6347 176.059 79.6821C175.462 79.7295 175.509 79.5399 175.765 78.9996C176.286 77.8809 174.087 77.8809 173.679 78.7531C172.248 81.8342 176.23 81.4265 177.917 80.6871C180.24 79.6632 184.07 76.1365 182.42 73.3303C181.927 72.4866 179.842 73.3019 180.42 74.2878Z" fill="#010101"/>
<path d="M181.472 80.2415C181.785 81.0947 181.131 81.8057 180.524 82.3366C179.87 82.9244 178.884 83.6923 178.012 83.8724C177.367 84.0052 176.827 83.8345 177.168 83.0571C177.623 82.0143 175.433 82.1849 175.111 82.9339C174.713 83.863 174.798 84.7257 175.832 85.1333C177.083 85.6358 178.638 85.1238 179.766 84.555C181.264 83.7966 184.449 81.8057 183.653 79.6537C183.35 78.8005 181.179 79.4262 181.472 80.2415Z" fill="#010101"/>
<path d="M172.58 85.3702C170.219 85.3986 168.133 81.9004 167.527 80.1181C166.503 77.1508 167.413 74.8091 168.209 72.0124C168.968 69.3674 167.28 68.2393 167.043 65.8313C166.74 62.7502 169.176 65.2624 169.736 66.8077C170.143 67.9548 170.371 69.5191 170.096 70.7231C169.935 71.4531 172.115 71.1118 172.276 70.4197C172.921 67.5377 171.641 63.319 168.314 62.9113C165.517 62.5605 164.161 64.3049 165.043 66.8077C165.413 67.8506 166.105 68.7607 166.285 69.8794C166.598 71.8323 165.526 73.0079 165.09 74.7807C164.559 76.9517 164.758 79.3217 165.65 81.3505C166.692 83.7206 168.826 86.5363 171.698 86.4984C172.466 86.5078 174.049 85.3512 172.58 85.3702Z" fill="#010101"/>
<path d="M28.5548 137.133C29.4744 133.037 24.2982 129.7 21.0274 128.582C17.8895 127.501 14.9032 127.529 12.0306 129.179C5.46075 132.943 6.47514 141.314 14.6282 141.418C15.6426 141.427 16.8751 139.901 15.3961 139.882C8.53237 139.797 7.992 132.336 14.0215 129.88C18.1265 128.212 27.5404 132.032 26.3459 137.322C26.1184 138.346 28.3462 138.071 28.5548 137.133Z" fill="#010101"/>
<path d="M21.8902 135.389C22.933 136.365 25.7486 139.418 23.9474 140.735C22.914 141.494 24.4972 141.883 25.1514 141.409C27.8154 139.465 25.4168 136.289 23.644 134.621C23.1036 134.118 21.3119 134.858 21.8902 135.389Z" fill="#010101"/>
<path d="M19.1597 138.451C19.6432 139.759 20.7618 140.707 20.9704 142.176C21.3307 144.726 16.088 144.603 15.1685 142.783C14.7987 142.053 12.9406 142.631 13.2724 143.295C14.6755 146.073 20.2025 145.798 22.1934 143.94C23.1604 143.039 22.9992 141.75 22.5536 140.622C22.2029 139.749 21.2833 138.583 21.0557 137.958C20.7713 137.18 18.8942 137.721 19.1597 138.451Z" fill="#010101"/>
<path d="M135.199 94.1964C135.199 94.1964 157.971 93.7698 166.162 80.2793L168.949 83.9766C168.949 83.9766 163.1 98.8038 140.935 102.255C140.944 102.255 139.674 99.4675 135.199 94.1964Z" fill="black"/>
<path d="M30.9059 94.7084C30.9059 94.7084 7.66962 94.2155 1.55481 108.18C-2.08564 116.485 0.73002 127.16 9.24335 132.857C9.24335 132.857 10.5706 131.321 12.4382 129.501C12.4382 129.501 3.81112 121.851 6.83535 113.773C10.4568 104.113 25.1987 102.871 29.7493 104.303" fill="black"/>
<path d="M81.0566 24.3361C81.0566 24.3361 75.6434 20.7525 70.2017 26.4787L81.0566 24.3361Z" fill="white"/>
<path d="M79.6157 24.4118C79.445 24.3076 78.5918 24.0137 77.9566 24.0137C75.5865 24.0137 73.5578 25.5305 71.9461 27.1232C71.2446 27.8153 67.8222 26.4406 68.4289 25.8339C72.2021 22.0892 77.9282 21.3497 82.4787 24.2696C83.1613 24.7057 82.8579 24.9807 82.2512 25.1229C81.4928 25.2935 80.2603 24.8195 79.6157 24.4118Z" fill="black"/>
<path d="M100.482 26.2888C100.785 26.2888 104.492 25.1133 108.55 29.351L100.482 26.2888Z" fill="white"/>
<path d="M99.6381 27.1233C100.643 27.0285 100.615 26.8768 101.676 27.0569C103.667 27.3793 105.317 28.6591 106.701 30.0432C107.44 30.7827 111.071 29.3417 110.398 28.6781C108.768 27.0474 106.853 25.796 104.549 25.4263C103.819 25.3125 103.089 25.2841 102.349 25.3315C102.056 25.3505 100.453 25.5496 101.326 25.4642C100.605 25.5306 99.1167 25.7297 98.6996 26.4217C98.2824 27.0854 99.0503 27.1707 99.6381 27.1233Z" fill="black"/>
<path d="M94.3862 79.1228C85.2092 80.1846 67.0923 80.8008 57.138 78.0989C54.7395 77.4448 54.2275 75.6341 53.9052 73.8612C52.8908 68.2773 53.2795 55.8866 53.6018 48.7289C53.7725 44.9937 53.3364 41.685 56.3985 39.9691C56.3985 39.9691 52.1039 39.2107 51.2981 46.2166C48.9849 66.4571 51.2981 76.2787 51.2981 76.2787C51.2981 76.2787 50.9094 79.1797 54.6826 79.6632C66.4192 81.1611 82.4789 81.2559 91.6653 80.2131" fill="black"/>
<path d="M116.466 133.616C110.588 141.209 104.473 141.38 98.5954 142.006C87.7404 143.162 70.9413 143.143 59.546 141.683C57.6594 141.437 55.9245 139.721 55.5453 137.787C54.3413 131.729 54.2654 118.163 54.6541 110.398C54.8532 106.341 54.3413 102.748 57.9628 100.89C57.9628 100.89 52.8813 100.074 51.9333 107.678C49.1935 129.653 51.9333 140.318 51.9333 140.318C51.9333 140.318 51.4687 143.475 55.934 143.997C69.8226 145.618 88.8212 145.732 99.6857 144.594C103.81 144.167 110.768 142.015 114.181 137.171C117.793 132.042 116.466 133.616 116.466 133.616Z" fill="black"/>
<path d="M89.7881 38.9926C88.8685 37.5136 87.2474 36.5846 85.6452 36.8026C84.4128 36.9733 83.2088 37.7791 82.8675 40.1586C82.1185 45.4581 83.9482 50.8714 87.892 50.3974C91.8359 49.9139 92.0444 43.8465 91.1533 41.6186C90.7741 40.6706 90.2526 39.7415 89.7881 38.9926Z" fill="black"/>
<path d="M107.175 40.1775C106.663 38.8882 105.269 38.035 103.99 38.2151C103.013 38.3478 101.657 39.4855 101.383 41.3815C100.785 45.5908 102.236 49.8949 105.374 49.5157C108.512 49.1364 107.933 42.0926 107.175 40.1775Z" fill="black"/>
<path d="M81.6445 39.8174L86.0813 42.0073L81.6445 43.8655V39.8174Z" fill="white"/>
<path d="M99.3823 39.9785L103.81 42.1685L99.3823 44.0266V39.9785Z" fill="white"/>
</g>
<defs>
<clipPath id="clip0">
<rect width="183.786" height="218" fill="white"/>
</clipPath>
</defs>
</svg>
