<svg width="96" height="72" viewBox="0 0 96 72" fill="none" xmlns="http://www.w3.org/2000/svg">
<path d="M92.5 11.1589V66.0585L71.3786 60.5486L71.0317 60.4581L70.6814 60.5342L48 65.465L25.3186 60.5342L24.9683 60.4581L24.6214 60.5486L3.5 66.0585V11.1589L25.0317 5.54193L47.6814 10.4658L48 10.535L48.3186 10.4658L70.9683 5.54193L92.5 11.1589Z" fill="white" stroke="black" stroke-width="3"/>
<circle cx="22" cy="21" r="7" fill="#A4A7E3"/>
<circle cx="29" cy="26" r="4" fill="black" stroke="black" stroke-width="2"/>
<circle cx="23" cy="37" r="5" fill="#A4A7E3"/>
<circle cx="26" cy="43" r="5" fill="black" stroke="black" stroke-width="2"/>
<circle cx="22" cy="52" r="3" fill="#A4A7E3"/>
<circle cx="14" cy="18" r="1.5" fill="white" stroke="black" stroke-width="3"/>
<circle cx="31.5" cy="11.5" r="4" fill="white" stroke="black" stroke-width="3"/>
<circle cx="20" cy="28" r="2.5" fill="white" stroke="black" stroke-width="3"/>
<circle cx="46" cy="24" r="2.5" fill="white" stroke="black" stroke-width="3"/>
<circle cx="52" cy="27" r="5" fill="#A4A7E3"/>
<circle cx="49" cy="44" r="4" fill="black" stroke="black" stroke-width="2"/>
<circle cx="51" cy="18" r="3" fill="#A4A7E3"/>
<circle cx="61" cy="20" r="6" fill="black" stroke="black" stroke-width="2"/>
<circle cx="75" cy="22" r="5" fill="#A4A7E3"/>
<circle cx="63" cy="28" r="6" fill="#A4A7E3"/>
<circle cx="59" cy="33" r="4.5" fill="white" stroke="black" stroke-width="3"/>
<circle cx="71" cy="32" r="6.5" fill="white" stroke="black" stroke-width="3"/>
<circle cx="77" cy="37" r="3" fill="#A4A7E3"/>
<circle cx="84" cy="17" r="1.5" fill="white" stroke="black" stroke-width="3"/>
<circle cx="74" cy="51" r="6" fill="#A4A7E3"/>
<circle cx="52.5" cy="39.5" r="5.5" fill="#A4A7E3"/>
<circle cx="45" cy="37" r="3.5" fill="white" stroke="black" stroke-width="3"/>
<circle cx="51" cy="51" r="1.5" fill="white" stroke="black" stroke-width="3"/>
</svg>
