<svg xmlns="http://www.w3.org/2000/svg" viewBox="0 0 201.69 229.95"><defs><style>.cls-1{fill:#a4a7d4;}.cls-2{fill:#010101;}.cls-3{fill:#fff;}</style></defs><title>Asset 1</title><g id="Layer_2" data-name="Layer 2"><g id="Layer_1-2" data-name="Layer 1"><path class="cls-1" d="M143.72,97l-4-1.5s17.81-9.57,14-36c-4.42-30.69-34.82-34-41.36-35,0,0,0-15.4-2.35-18.59C108.66,4.08,99.26,3.46,99,5a116.63,116.63,0,0,0-1.16,13s-7.51,0-9.62,0-8.47,0-8.47,0S80.24,7.33,77.63,4.7c-2.92-2.94-12.55-1.27-12.9.61C64,9.47,63.39,18.47,63.39,18.47l-30.1,1L40.46,43l8.44,1.6.65,5.84c1.61,23.8.64,101,.64,101l-9,1.74-8.77,22,31.41,1.23s-.82,13,2.55,18.24c1.67,2.59,10.4,2.54,15.06,1.47h-1a10.35,10.35,0,0,0,4.2-7.15l1.49-12.56s11.46.88,17,0c0,0-1.75,15.43,1.46,18.15,2,1.72,5.47,2.54,10.3,1.11a12.13,12.13,0,0,0,4.54-8.23L120.58,176l8.59-.4c7.83-.19,35.76-7.64,37.34-40,1.26-25.89-16.38-34.41-22.79-38.64M68,48.76s-.72-9.46,15.23-9c0,0,35.33-1.8,43.58,4.51,12.89,9.84,11.71,34.63.21,40.3s-44.86,6.07-52.3,3.72S68.65,85.79,68,73.76s.06-25,.06-25M145.72,129c0,16-5.88,24.28-17.44,26.86-10.43,2.33-43.52,2.5-55-.35a4.73,4.73,0,0,1-3.91-3.87c-1.62-9.57-1.09-28.41,0-38.44.4-3.68,1.06-6.68,4.71-7.48,7.88-1.71,30.8-3.15,41.55-.57,4.06,1,14.55,1.79,18.21,3.69,12.84,6.66,11.93,20.16,11.93,20.16"/><path d="M89.09,193q1.09-8.5,2.18-17l-2.49,1a48.41,48.41,0,0,0,12.44,0l-1.29-.53c-.58,4.88-2,13.07.81,17.41,3.17,4.91,14.41,3.4,19.11,2.3,1.84-.43,1.49-1.76-.35-1.33a27.13,27.13,0,0,1-12.45-.05c-3.23-.85-3.9-2.61-4.32-5.74a52.16,52.16,0,0,1,.26-13c.08-.64-.9-.57-1.29-.53a42.19,42.19,0,0,1-11,0c-.59-.08-2.38.16-2.49,1q-1.08,8.52-2.17,17c-.14,1.06,2.93.49,3-.44"/><path d="M47.57,50.56c2.37,33.49,1.14,67.47.69,101L50,150.42c-3.08.55-6.62.72-9.58,1.72-2.07.69-2.1,1.47-3,3.47l-8.41,19.56c-.21.48.67.55.9.56l34,1.23-.9-.56c-.34,5.41-.68,12.85,2.25,17.64,3.14,5.12,13.16,3.52,18.07,2.6,1.36-.26,2.61-1.9.48-1.5-3.68.69-8,1.14-11.66.29-3.45-.79-4.44-2.88-5.23-6.19A46.22,46.22,0,0,1,66.08,176c0-.5-.51-.54-.9-.56l-33.95-1.23.9.56,9.48-22-1.76,1,9.71-1.74c.57-.11,1.76-.4,1.77-1.16.46-33.55,1.68-67.53-.69-101,0-.84-3.14-.24-3.07.82"/><path d="M46.87,44.72a38.31,38.31,0,0,1,.7,5.84c.07.84,3.15.24,3.07-.82a38,38,0,0,0-.7-5.84c-.21-.92-3.3-.15-3.07.82"/><path d="M150.36,91.35c17.84-14.71,13.16-45.84-2.61-59.89a59.07,59.07,0,0,0-27.52-13.58c-2-.38-1.52.22-1.74-1.5-.38-3-.27-6-.8-9-.91-5.11-2.31-6.26-7.37-6.46-3.23-.13-11.11-.72-13.65,2-1.57,1.69-1.09,6-1.19,8.19-.12,2.34-.18,4.69-.19,7l2.16-1.19q-5.92-.08-11.83,0l.9.56c.19-4.26.41-9.23-1-13.29C83.86-.34,78.33-.13,74.25.1,71.6.24,65.78.34,64.11,3c-1.2,1.92-.88,6-1.07,8.22q-.3,3.6-.51,7.2l2.16-1-32.54,1c-.44,0-2.42.38-2.15,1.2q3.87,11.76,7.75,23.53c.08.24.37.31.58.35l9.11,1.6c.86.15,3.59-1.23,1.92-1.52-2.16-.38-7.36-.24-9-1.57.9.74,0-.85-.08-1.26a42.48,42.48,0,0,0-1.44-4.39L33.07,18.76,30.91,20l32.53-1c.45,0,2.11-.29,2.15-1,.19-3.39.43-6.78.78-10.17.16-1.54,0-4.22,1.1-5.22,1.34-1.18,5.47-1,7.13-1C80,1.55,82.36,3,83.11,8.3a54.23,54.23,0,0,1,.36,9.62c0,.49.5.56.9.56q5.92-.07,11.84,0c.65,0,2.15-.33,2.15-1.2a113.34,113.34,0,0,1,.5-11.36c.26-2.4.27-2.79,2.67-3.15a41.36,41.36,0,0,1,6.58-.37c1.3,0,3.83-.13,4.9.83,1.35,1.2,1.53,4.37,1.78,6a68.49,68.49,0,0,1,.66,9.39c0,.22.44.33.57.35,15.44,2.15,32,12.16,38.65,26.54C161,59.11,160.45,80.67,147.93,91c-1.3,1.07,1.75.91,2.43.35"/><path d="M125.55,192q.92-8.26,1.85-16.52l-2.16,1c12.1-.52,22.83-1.74,32.92-9.27,16.7-12.48,20.57-37.05,12.48-55.61a42.87,42.87,0,0,0-16.58-19.2c-.85-.53-3.56.72-2.87,1.15C170.65,105.69,177,133,167,153.33a38.8,38.8,0,0,1-21.78,19.18c-6.13,2.22-12.32,2.17-18.76,2.45-.48,0-2.07.28-2.15,1q-.93,8.26-1.85,16.52c-.12,1.06,3,.48,3.06-.44"/><path d="M64,188.67c4.53,3.53,12.65,3.24,17.86,2.47,1.6-.24,2.44-2.32.34-2-4.62.68-11.77,1-15.8-2.11-.94-.73-3.71.63-2.4,1.65"/><path d="M99.74,188.42c4.6,3.59,12.72,3.25,18,2.46,1.39-.2,2.62-1.81.48-1.49-4.52.67-11.68,1-15.64-2.11-.77-.61-3.57.59-2.86,1.14"/><path d="M72.05,80.57c1.37,4.71,7.31,4.68,11.42,5.08a138.27,138.27,0,0,0,19.31.3c8.79-.38,19.65-.33,27.15-5.66s8.45-17.55,5-25.5c-4.47-10.4-13-15.61-24-15.28-1,0-3.29,1.62-1.24,1.56,10.18-.31,18,5,22.14,14.55,2.91,6.77,2.85,17.14-2.62,22.78-5.87,6-17.48,5.65-25.25,6-4.92.21-9.86.27-14.79,0-4.06-.21-12.72.1-14.11-4.66-.27-.94-3.34-.1-3.07.82"/><path d="M72.22,113.35a149.75,149.75,0,0,0-.81,27.84c.24,3.2,0,7.59,2.62,9.88,2.45,2.15,6.79,2.28,9.84,2.63a165.39,165.39,0,0,0,26.05.5c6.58-.29,13.93-.16,20.25-2.3,10.91-3.7,16.7-14.52,15.49-25.77C144,110.66,128.55,104.89,115,103.25a126.51,126.51,0,0,0-28.65.3c-7.41.81-13,1.42-14.13,9.8-.2,1.57,2.93,1.17,3.12-.23.6-4.57,2.81-6.24,7.24-6.88,3.14-.45,6.31-.74,9.47-1a116.84,116.84,0,0,1,21.89.22C126.37,107,140.45,112,142.47,126c1.47,10.17-3.51,20.91-13.72,24-5.16,1.58-11.11,1.5-16.45,1.78A199.89,199.89,0,0,1,91,152a61.37,61.37,0,0,1-10.81-1.2c-3.34-.8-4.5-2.1-5.14-5.44a50.15,50.15,0,0,1-.64-6.91,154.75,154.75,0,0,1,1-25.28c.18-1.58-3-1.17-3.12.23"/><path d="M140.22,97.77a41.51,41.51,0,0,0,10.32-6.68c.53-.5-.46-.59-.74-.59a3.32,3.32,0,0,0-2.05.76,37.55,37.55,0,0,1-9.33,6c-.49.24-.81.52-.35.88s1.75-.18,2.15-.37"/><path d="M116,196s-1.77.9-8.19.29l1.08,28.94s3.47.19,4.52-.73Z"/><path d="M108.88,225.2s-7.56,1.54-8.4,4.19c-.54,1.71,11-1.33,11-1.33V230h1.8l.07-5.48s-3.18.41-4.52.73"/><path d="M80.68,196s-1.77.9-8.2.29l3.21,28.94s3.46.19,4.52-.73Z"/><path d="M75.69,225.2s-7.57,1.54-8.4,4.19c-.55,1.71,11-1.33,11-1.33V230h1.8l.08-5.48s-3.19.41-4.52.73"/><path class="cls-2" d="M8.68,79c-1.88-.34-5.3.13-5.38,2.63-.06,2,2,3.86,3.4,5s3.14,2.22,4.91,1.61c2.18-.73,1.75-2.75.51-4.17-.55-.63-2.76.21-2.14.92a4.14,4.14,0,0,1,.66,1,6.19,6.19,0,0,0,.25.69c.16.24.72.4.26.38-.92,0-2.16-1.14-2.8-1.7A10.06,10.06,0,0,1,6.1,82.74c-.65-1.18-.85-2.77,1.18-2.4a1.88,1.88,0,0,0,1.63-.44c.27-.35.33-.76-.23-.86"/><path class="cls-2" d="M1.39,84.67c-1.71,2.91,2.39,6.56,4.78,7.54,1.79.73,6,.69,4.54-2.37-.46-1-2.74-.34-2.3.61a4.69,4.69,0,0,0,.2.6,2.83,2.83,0,0,1,0,.29L9.15,91s-.24,0-.28,0a13.13,13.13,0,0,1-2.3-.86c-1.36-.86-4-3.45-3-5.24.65-1.11-1.69-1.13-2.2-.26"/><path class="cls-2" d="M.13,91.4c-.84,2.28,2.68,4.4,4.29,5.07a4.69,4.69,0,0,0,3.76.15,1.76,1.76,0,0,0,1-2.43c-.39-.89-2.66-.2-2.31.61.45,1-.08.73-.88.39a9.26,9.26,0,0,1-2.6-1.74c-.63-.6-1.33-1.37-1-2.3s-2-.6-2.31.25"/><path class="cls-2" d="M11.81,98.21c2.6,0,4.83-1.89,6.22-3.91A10.86,10.86,0,0,0,20,87.66c-.11-3.51-2.31-5.87-.84-9.4,1.14-2.74,1.61-5.67-2.51-4.85-3.58.71-5.25,5-4.5,8.3.16.72,2.47.14,2.3-.61a5.39,5.39,0,0,1,.2-3.37q.16-2.24,3.28-1.62a5.9,5.9,0,0,1-.45,1.17c-.26,2-1.76,3.31-1.28,5.54.57,2.63,1.89,4.54,1.38,7.47-.35,2-2.32,6.74-4.83,6.71-.8,0-2.46,1.19-.92,1.21"/><path d="M51.24,106.31s-24-.45-32.66-14.69l-2.94,3.9a50.76,50.76,0,0,0,34,20.84s-1.24-4.35,1.6-10"/><path class="cls-2" d="M175.47,145.27c-1-3.49,3.47-6.75,6.2-7.9a7.66,7.66,0,0,1,6.84,0c5,2.39,6.66,9.53-.75,10.13-1.27.1-1.8,1.75-.22,1.63,3.43-.28,7-1.64,7.62-5.45.64-3.58-2-6.3-5-7.74s-6.31-1.18-9.47.18c-3.38,1.44-8.81,5.45-7.5,9.81.3,1,2.61.39,2.3-.62"/><path class="cls-2" d="M178.28,142.69c-1.61,1.74-4.27,5.44-1.4,7.24.61.39,2.43-.49,1.57-1-2.15-1.35.29-4.53,1.46-5.79.82-.88-1.12-1-1.63-.42"/><path class="cls-2" d="M181.12,146.16s-.39.67-.51.88a13.45,13.45,0,0,0-.83,1.91c-.39,1.15-.59,2.62.49,3.47,1.32,1.05,3.7,1.15,5.29.85,1.43-.28,3.45-1.05,4.05-2.48.41-1-1.59-.85-1.89-.14-.88,2.1-6.32,2.13-6.24-.51,0-1.61,1.23-2.73,1.65-4.18.24-.82-1.79-.57-2,.2"/><path d="M164.09,101s27.91-2.1,35.36,12.16c4.43,8.47,2.26,19.91-6.29,26.53,0,0-1.51-1.51-3.6-3.29,0,0,8.52-8.68,4.75-17-4.52-9.9-20.12-10.13-24.81-8.3"/><path d="M141.58,140.94c-6.19,8-12.65,8.19-18.84,8.85a205.87,205.87,0,0,1-41.2-.34,5.3,5.3,0,0,1-4.22-4.1c-1.26-6.39-1.34-20.7-.94-28.9.21-4.28-.33-8.07,3.49-10,0,0-5.36-.86-6.36,7.16-2.89,23.17,0,34.43,0,34.43s-.48,3.32,4.22,3.87c14.65,1.72,34.69,1.83,46.16.63,4.35-.45,11.69-2.72,15.29-7.82,3.8-5.41,2.4-3.75,2.4-3.75"/><path d="M88.93,59.81c-4.32-3.63-8.66-2.65-12.64,2-3.18,3.69-6.18,4.94-8.24,1-.93-1.78-3-1.39-4,.34a6.79,6.79,0,0,0,.57,7.35c5.89,7.25,22.22,4.13,24.06-2.1s1.9-7.19.26-8.57"/><path d="M88.93,59.81s7.47-8.26,19.8,4.82c3.26,3.46,8.72,2.1,11.84.41,1.74-.94,4.29-.29,4.26,1.69a6.66,6.66,0,0,1-1.46,3.75c-6.87,9.43-31.13,7.48-34.7-2.1-2.27-6.09.26-8.57.26-8.57"/><path class="cls-3" d="M86.67,42c-1-6.21-3.3-8.79-6.46-7.4-6,2.63-5.65,14.76-3.25,16.84"/><path d="M88.2,41.59c-.53-2.93-1.4-7.33-4.85-8.14-2.39-.56-5,.84-6.58,2.56C73.71,39.4,72,48.39,75.54,52c.76.78,3.68-.36,2.85-1.21-2.34-2.39-1.69-7.68-.9-10.56.43-1.6,1.82-5.35,4-5.13,2.59.27,3.32,5.4,3.66,7.27.2,1.07,3.28.33,3.07-.82"/><path class="cls-3" d="M108.73,40.08s-1.83-10.81-8.35-7.75C92.6,36,90.72,47.66,95.29,52.64"/><path d="M110.26,39.67c-1-5.6-4.56-10.44-10.63-7.75-7.54,3.35-11.24,14.67-5.78,21.29.57.69,3.5-.36,2.87-1.13-4.07-4.93-2.7-14.21,2.41-18,4.89-3.67,7.34,2.43,8.06,6.45.15.84,3.24.13,3.07-.82"/><path d="M104.26,25.75a4.56,4.56,0,0,1,1.75-.42c2.5,0,4.64,1.6,6.33,3.27.74.73,4.36-.72,3.71-1.35a11.8,11.8,0,0,0-14.82-1.66c-.72.46-.4.76.24.9a4.49,4.49,0,0,0,2.79-.74"/><path d="M83.59,26.85c.53,0-.15,0-.32-.06s-.58-.07-.88-.09a11.89,11.89,0,0,0-3.15.28,14.63,14.63,0,0,0-7.38,4.11c-.67.67.59.76,1,.75a4.57,4.57,0,0,0,2.77-1c1-1,2.25-2.25,3.74-2.37a8,8,0,0,1,1.55.15,4.6,4.6,0,0,0,2.93-.79c.6-.48.6-.89-.26-1"/><path d="M93.53,41.13a4.6,4.6,0,0,1,4.37-2.31c1.3.18,2.57,1,2.93,3.55.79,5.58-1.14,11.3-5.3,10.79s-4.38-6.91-3.44-9.25a19,19,0,0,1,1.44-2.78"/><path d="M75.19,42.38a3.34,3.34,0,0,1,3.36-2.07,3.79,3.79,0,0,1,2.75,3.34c.63,4.44-.9,9-4.21,8.58s-2.7-7.83-1.9-9.85"/><polygon class="cls-3" points="102.12 42 97.45 44.31 102.12 46.27 102.12 42"/><polygon class="cls-3" points="83.42 42.17 78.74 44.48 83.42 46.44 83.42 42.17"/></g></g></svg>