<svg width="96" height="72" viewBox="0 0 96 72" fill="none" xmlns="http://www.w3.org/2000/svg">
<rect width="96" height="72" fill="white"/>
<path d="M68.5 47.5L27.5 47.5L48 65.5L68.5 47.5Z" fill="#A4A7E3" stroke="#A4A7E3" stroke-width="3"/>
<path fill-rule="evenodd" clip-rule="evenodd" d="M27.5 6.5H68.5V34.5H75.5L48 58.5L20.5 34.5L27.5 34.5V6.5Z" fill="white"/>
<path d="M68.5 6.5H70V5H68.5V6.5ZM27.5 6.5V5H26V6.5H27.5ZM68.5 34.5H67V36H68.5V34.5ZM75.5 34.5L76.4863 35.6301L79.5 33H75.5V34.5ZM48 58.5L47.0137 59.6301L48 60.4909L48.9863 59.6301L48 58.5ZM20.5 34.5L20.5 33L16.5 33L19.5137 35.6301L20.5 34.5ZM27.5 34.5L27.5 36L29 36V34.5H27.5ZM68.5 5H27.5V8H68.5V5ZM70 34.5V6.5H67V34.5H70ZM75.5 33H68.5V36H75.5V33ZM48.9863 59.6301L76.4863 35.6301L74.5137 33.3699L47.0137 57.3699L48.9863 59.6301ZM19.5137 35.6301L47.0137 59.6301L48.9863 57.3699L21.4863 33.3699L19.5137 35.6301ZM27.5 33L20.5 33L20.5 36L27.5 36L27.5 33ZM26 6.5V34.5H29V6.5H26Z" fill="black"/>
<path d="M40.5 21.5C42.7091 21.5 44.5 19.7091 44.5 17.5C44.5 15.2909 42.7091 13.5 40.5 13.5C38.2909 13.5 36.5 15.2909 36.5 17.5C36.5 19.7091 38.2909 21.5 40.5 21.5Z" fill="white" stroke="black" stroke-width="3"/>
<path d="M54.5 36C56.9853 36 59 33.9853 59 31.5C59 29.0147 56.9853 27 54.5 27C52.0147 27 50 29.0147 50 31.5C50 33.9853 52.0147 36 54.5 36Z" fill="black" stroke="black" stroke-width="2"/>
<path d="M56.5 15.5L38.5 33.5" stroke="black" stroke-width="3"/>
</svg>
