<svg width="96" height="72" viewBox="0 0 96 72" fill="none" xmlns="http://www.w3.org/2000/svg">
<rect width="96" height="72" fill="white"/>
<path d="M47.892 7C46.6154 11.1009 46.7712 12.8466 47.9639 16.9474C49.4699 21.2338 49.2367 24.0653 47.892 28" stroke="#A4A7E3" stroke-width="3"/>
<path d="M58.446 11C58.167 12.1097 58.0248 12.9408 58.003 13.7368C57.9749 14.762 58.1463 15.729 58.4819 17.1579C58.929 18.7333 59.0695 19.9913 58.9692 21.2632C58.9006 22.1335 58.7192 23.0104 58.446 24" stroke="#A4A7E3" stroke-width="3"/>
<path d="M37.446 11C37.167 12.1097 37.0248 12.9408 37.003 13.7368C36.9749 14.762 37.1463 15.729 37.4819 17.1579C37.929 18.7333 38.0695 19.9913 37.9692 21.2632C37.9006 22.1335 37.7192 23.0104 37.446 24" stroke="#A4A7E3" stroke-width="3"/>
<path d="M21.5 64.5L75.5 64.5L75.5 44.5L21.5 44.5L21.5 64.5Z" fill="white" stroke="black" stroke-width="3"/>
<path d="M22.5 54.5L75.5 54.5" stroke="black" stroke-width="3"/>
<path d="M28.5 54.5L67.5 54.5L67.5 33.5L28.5 33.5L28.5 54.5Z" fill="white" stroke="black" stroke-width="3"/>
<path d="M48.5 40C46.0147 40 44 42.0147 44 44.5C44 46.9853 46.0147 49 48.5 49C50.9853 49 53 46.9853 53 44.5C53 42.0147 50.9853 40 48.5 40Z" fill="black" stroke="black" stroke-width="2"/>
</svg>
