<svg width="96" height="72" viewBox="0 0 96 72" fill="none" xmlns="http://www.w3.org/2000/svg">
<rect width="96" height="72" fill="white"/>
<path d="M30 63.5C36.3513 63.5 41.5 58.3513 41.5 52C41.5 45.6487 36.3513 40.5 30 40.5C23.6487 40.5 18.5 45.6487 18.5 52C18.5 58.3513 23.6487 63.5 30 63.5Z" fill="white" stroke="black" stroke-width="3"/>
<path d="M36 48L29 55L25 51" stroke="#A4A7E3" stroke-width="3"/>
<path d="M70 13L54 29" stroke="black" stroke-width="3"/>
<path d="M64.1127 39.4767L42.8995 18.2635L36.5355 24.6274L57.7487 45.8406L64.1127 39.4767Z" fill="white" stroke="black" stroke-width="3"/>
<path d="M54.9203 43.0122L39.364 27.4558L35.8284 30.9914L51.3848 46.5477L54.9203 43.0122Z" fill="white" stroke="black" stroke-width="3"/>
<path d="M72.5 6C74.9853 6 77 8.01472 77 10.5C77 12.9853 74.9853 15 72.5 15C70.0147 15 68 12.9853 68 10.5C68 8.01472 70.0147 6 72.5 6Z" fill="black" stroke="black" stroke-width="2"/>
<path d="M28 17H17V20H28V17Z" fill="black"/>
<path d="M68 53L79 53L79 50L68 50L68 53Z" fill="black"/>
<path d="M33 11H17V14H33V11Z" fill="black"/>
<path d="M63 59L79 59L79 56L63 56L63 59Z" fill="black"/>
<path d="M38 5H17V8H38V5Z" fill="black"/>
<path d="M58 65L79 65L79 62L58 62L58 65Z" fill="black"/>
</svg>
